<svg width="40" height="40" viewBox="0 0 40 40" fill="none" xmlns="http://www.w3.org/2000/svg">
<path fill-rule="evenodd" clip-rule="evenodd" d="M26.6663 11.2497C25.5157 11.2497 24.583 12.1824 24.583 13.333C24.583 14.4836 25.5157 15.4163 26.6663 15.4163C27.8169 15.4163 28.7497 14.4836 28.7497 13.333C28.7497 12.1824 27.8169 11.2497 26.6663 11.2497ZM22.083 13.333C22.083 10.8017 24.135 8.74968 26.6663 8.74968C29.1976 8.74968 31.2497 10.8017 31.2497 13.333C31.2497 15.8643 29.1976 17.9163 26.6663 17.9163C24.135 17.9163 22.083 15.8643 22.083 13.333Z" fill="#BBBBBB"/>
<path fill-rule="evenodd" clip-rule="evenodd" d="M19.904 2.08301H20.0953C23.9426 2.08299 26.9577 2.08297 29.3102 2.39925C31.7181 2.72299 33.6181 3.39855 35.1094 4.8899C36.6008 6.38125 37.2764 8.28129 37.6001 10.6892C37.9164 13.0417 37.9164 16.0567 37.9163 19.9041V20.0953C37.9164 23.9426 37.9164 26.9577 37.6001 29.3102C37.2764 31.7181 36.6008 33.6181 35.1094 35.1094C33.6181 36.6008 31.7181 37.2764 29.3102 37.6001C26.9577 37.9164 23.9426 37.9164 20.0953 37.9163H19.9041C16.0567 37.9164 13.0417 37.9164 10.6892 37.6001C8.28129 37.2764 6.38125 36.6008 4.8899 35.1094C3.39855 33.6181 2.72299 31.7181 2.39925 29.3102C2.08297 26.9577 2.08299 23.9426 2.08301 20.0953V19.904C2.08299 16.0567 2.08297 13.0417 2.39925 10.6892C2.72299 8.28129 3.39855 6.38125 4.8899 4.8899C6.38125 3.39855 8.28129 2.72299 10.6892 2.39925C13.0417 2.08297 16.0567 2.08299 19.904 2.08301ZM6.65767 33.3417C5.70824 32.3923 5.16342 31.1077 4.87696 28.977C4.62116 27.0745 4.58794 24.6472 4.58364 21.3999L7.07544 19.2196C8.09897 18.324 9.64158 18.3754 10.6033 19.3371L17.7528 26.4866C19.3277 28.0615 21.8068 28.2762 23.6291 26.9956L24.1261 26.6463C25.5564 25.6411 27.4915 25.7576 28.7909 26.9271L34.1635 31.7624C34.2219 31.815 34.284 31.8611 34.3488 31.9007C34.0794 32.4688 33.7475 32.9359 33.3417 33.3417C32.3923 34.2911 31.1077 34.8359 28.977 35.1224C26.8104 35.4137 23.9634 35.4163 19.9997 35.4163C16.036 35.4163 13.1889 35.4137 11.0223 35.1224C8.89163 34.8359 7.6071 34.2911 6.65767 33.3417ZM11.0223 4.87696C8.89163 5.16342 7.6071 5.70824 6.65767 6.65767C5.70824 7.6071 5.16342 8.89163 4.87696 11.0223C4.63507 12.8215 4.59221 15.0898 4.58463 18.0771L5.42919 17.3381C7.44323 15.5759 10.4787 15.6769 12.371 17.5693L19.5206 24.7188C20.2364 25.4347 21.3633 25.5323 22.1916 24.9502L22.6886 24.6009C25.0724 22.9256 28.2976 23.1197 30.4633 25.0688L35.0866 29.2298C35.099 29.1469 35.1109 29.0626 35.1224 28.977C35.4137 26.8104 35.4163 23.9634 35.4163 19.9997C35.4163 16.036 35.4137 13.1889 35.1224 11.0223C34.8359 8.89163 34.2911 7.6071 33.3417 6.65767C32.3923 5.70824 31.1077 5.16342 28.977 4.87696C26.8104 4.58566 23.9634 4.58301 19.9997 4.58301C16.036 4.58301 13.1889 4.58566 11.0223 4.87696Z" fill="#BBBBBB"/>
</svg>
