<svg xmlns="http://www.w3.org/2000/svg" width="48" height="49" viewBox="0 0 48 49" fill="none">
<path d="M18.3063 11.3168C20.8396 6.77225 22.1063 4.5 24 4.5C25.8937 4.5 27.1604 6.77225 29.6937 11.3167L30.3491 12.4925C31.069 13.7839 31.4289 14.4296 31.9901 14.8556C32.5513 15.2817 33.2503 15.4398 34.6482 15.7561L35.9209 16.0441C40.8403 17.1571 43.3 17.7136 43.8852 19.5955C44.4704 21.4773 42.7935 23.4381 39.4398 27.3598L38.5722 28.3744C37.6191 29.4889 37.1426 30.0461 36.9283 30.7354C36.7139 31.4248 36.7859 32.1682 36.93 33.6551L37.0612 35.0088C37.5682 40.2412 37.8218 42.8574 36.2897 44.0204C34.7576 45.1835 32.4547 44.1231 27.8487 42.0023L26.657 41.4537C25.3481 40.851 24.6937 40.5497 24 40.5497C23.3063 40.5497 22.6519 40.851 21.343 41.4537L20.1513 42.0023C15.5454 44.1231 13.2424 45.1835 11.7103 44.0204C10.1782 42.8574 10.4318 40.2412 10.9388 35.0088L11.07 33.6551C11.2141 32.1682 11.2861 31.4248 11.0717 30.7354C10.8574 30.0461 10.3809 29.4889 9.42784 28.3744L8.56019 27.3599C5.2065 23.4381 3.52965 21.4773 4.11484 19.5955C4.70003 17.7136 7.15971 17.1571 12.0791 16.0441L13.3518 15.7561C14.7497 15.4398 15.4487 15.2817 16.0099 14.8556C16.5711 14.4296 16.9311 13.7839 17.6509 12.4925L18.3063 11.3168Z" fill="#D1D6DB"/>
</svg>