<svg width="108" height="40" viewBox="0 0 108 40" fill="none" xmlns="http://www.w3.org/2000/svg">
<g filter="url(#filter0_d_205_37269)">
<rect x="4" y="4" width="92" height="34" rx="4" fill="#E9F4FF" shape-rendering="crispEdges"/>
<path d="M10 19.5638C10 18.9895 10 18.7023 10.074 18.4378C10.1396 18.2036 10.2474 17.9832 10.392 17.7876C10.5553 17.5668 10.782 17.3905 11.2354 17.0379L18.0177 11.7628C18.369 11.4895 18.5447 11.3529 18.7387 11.3004C18.9098 11.254 19.0902 11.254 19.2613 11.3004C19.4553 11.3529 19.631 11.4895 19.9823 11.7628L26.7646 17.0379C27.218 17.3905 27.4447 17.5668 27.608 17.7876C27.7526 17.9832 27.8604 18.2036 27.926 18.4378C28 18.7023 28 18.9895 28 19.5638V26.7988C28 27.9189 28 28.4789 27.782 28.9067C27.5903 29.2831 27.2843 29.589 26.908 29.7808C26.4802 29.9988 25.9201 29.9988 24.8 29.9988H13.2C12.0799 29.9988 11.5198 29.9988 11.092 29.7808C10.7157 29.589 10.4097 29.2831 10.218 28.9067C10 28.4789 10 27.9189 10 26.7988V19.5638Z" fill="#1B92FF"/>
<path d="M15 26H23" stroke="#F5FAFF" stroke-width="2" stroke-linecap="round"/>
<path d="M46.5312 14.2656V19.7812H48.625V21.2344H46.5312V28.3594H44.7969V14.2656H46.5312ZM42.7969 15.7344C42.7969 19.8906 41.0781 23.5312 36.375 25.8438L35.3906 24.5C38.8281 22.7891 40.6875 20.3828 41.0469 17.1719H36.1562V15.7344H42.7969ZM61.125 14.2656V22.6562H59.3906V19.2031H56.9844V17.7812H59.3906V14.2656H61.125ZM56.3438 23.0156C59.3438 23.0156 61.1719 24 61.1719 25.7031C61.1719 27.4062 59.3438 28.3906 56.3438 28.3906C53.3594 28.3906 51.5312 27.4062 51.5469 25.7031C51.5312 24 53.3594 23.0156 56.3438 23.0156ZM56.3438 24.3438C54.375 24.3438 53.2656 24.8125 53.2656 25.7031C53.2656 26.5781 54.375 27.0469 56.3438 27.0469C58.3125 27.0469 59.4375 26.5781 59.4375 25.7031C59.4375 24.8125 58.3125 24.3438 56.3438 24.3438ZM54.4844 16.6875C54.4844 18.4062 55.625 20.1406 57.8125 20.875L56.9375 22.25C55.3672 21.7188 54.25 20.6406 53.6406 19.3125C53.0156 20.8203 51.8359 22.0234 50.1562 22.625L49.25 21.25C51.5156 20.4688 52.7188 18.5625 52.7188 16.7031V16.5938H49.7812V15.1875H57.4062V16.5938H54.4844V16.6875ZM74.875 14.2656V28.4062H73.125V14.2656H74.875ZM67.2656 15.2969C69.3906 15.2969 70.9375 17.2344 70.9531 20.2812C70.9375 23.3594 69.3906 25.2812 67.2656 25.2812C65.125 25.2812 63.5781 23.3594 63.5781 20.2812C63.5781 17.2344 65.125 15.2969 67.2656 15.2969ZM67.2656 16.8594C66.0625 16.8594 65.25 18.125 65.25 20.2812C65.25 22.4531 66.0625 23.7188 67.2656 23.7188C68.4531 23.7188 69.2656 22.4531 69.2656 20.2812C69.2656 18.125 68.4531 16.8594 67.2656 16.8594ZM82 17.6562C81.9844 20.1719 83.25 22.7344 85.4375 23.7812L84.375 25.1719C82.8438 24.3984 81.7422 22.9062 81.1406 21.1094C80.5234 23.0312 79.3672 24.625 77.75 25.4375L76.6875 24.0469C78.9531 22.9688 80.25 20.2656 80.2656 17.6562V15.4062H82V17.6562ZM88.0156 14.2656V19.7969H90.1875V21.2812H88.0156V28.3906H86.2812V14.2656H88.0156Z" fill="#1B92FF"/>
</g>
</svg>
