<svg width="88" height="40" viewBox="0 0 88 40" fill="none" xmlns="http://www.w3.org/2000/svg">
<g filter="url(#filter0_d_205_37290)">
<rect x="4" y="4" width="72" height="34" rx="4" fill="#F2F3F8" shape-rendering="crispEdges"/>
<path d="M22.2969 14.2812V24.7188H20.5625V21.6406H17.1562V20.2188H20.5625V18.4688H17.3438C16.3438 20.6406 14.2656 22.2656 11.4062 23.1406L10.6719 21.7812C13.7891 20.7812 15.7891 18.9844 16.1094 16.75H11.4062V15.3594H18.0156C18.0156 15.9531 17.9453 16.5234 17.8281 17.0625H20.5625V14.2812H22.2969ZM22.6562 26.7031V28.1094H13.0938V23.6875H14.8594V26.7031H22.6562ZM29.4844 16.6875C29.4844 18.4062 30.625 20.1406 32.8125 20.875L31.9375 22.2188C30.3594 21.7031 29.2422 20.6328 28.625 19.3125C28.0078 20.7891 26.8281 21.9766 25.1562 22.5312L24.2656 21.1562C26.5156 20.4219 27.7188 18.5469 27.7188 16.7031V16.5156H24.7812V15.125H32.4062V16.5156H29.4844V16.6875ZM36.125 23.3594V28.3906H34.3906V24.75H26.5V23.3594H36.125ZM36.125 14.2656V22.6875H34.3906V19.1875H31.9844V17.7656H34.3906V14.2656H36.125ZM54.0781 14.2656V28.3906H52.4219V21.1875H50.8281V27.6719H49.2344V14.5312H50.8281V19.7969H52.4219V14.2656H54.0781ZM47.6406 15.9375V17.3438H44.1094V23.625C45.6484 23.6094 46.9141 23.5312 48.3438 23.2656L48.4688 24.6875C46.7656 25.0312 45.2812 25.0781 43.3125 25.0938H42.3594V15.9375H47.6406ZM67.5469 14.2656V28.3906H65.7969V14.2656H67.5469ZM63.3281 15.7656C63.3281 19.9688 61.7031 23.5469 56.75 25.8906L55.8438 24.5C59.5391 22.7422 61.2578 20.3516 61.5625 17.1406H56.5625V15.7656H63.3281Z" fill="#242945"/>
</g>
</svg>
