<svg width="122" height="40" viewBox="0 0 122 40" fill="none" xmlns="http://www.w3.org/2000/svg">
<g filter="url(#filter0_d_205_37266)">
<path d="M4 8C4 5.79086 5.79086 4 8 4H106C108.209 4 110 5.79086 110 8V34C110 36.2091 108.209 38 106 38H8C5.79086 38 4 36.2091 4 34V8Z" fill="#E9F4FF" shape-rendering="crispEdges"/>
<path d="M22.2667 11H15.7333C14.4265 11 13.7731 11 13.274 11.2422C12.835 11.4553 12.478 11.7952 12.2543 12.2134C12 12.6887 12 13.311 12 14.5556V31H26V14.5556C26 13.311 26 12.6887 25.7457 12.2134C25.522 11.7952 25.165 11.4553 24.726 11.2422C24.2269 11 23.5735 11 22.2667 11Z" fill="#1B92FF"/>
<path d="M15 16H23" stroke="#F5FAFF" stroke-width="2" stroke-linecap="round"/>
<path d="M15 20H23" stroke="#F5FAFF" stroke-width="2" stroke-linecap="round"/>
<path d="M15 24H23" stroke="#F5FAFF" stroke-width="2" stroke-linecap="round"/>
<path d="M11 31H27" stroke="#1B92FF" stroke-width="2" stroke-linecap="round"/>
<path d="M40.5156 17.6562C40.5 20.1719 41.7656 22.7344 43.9531 23.7812L42.8906 25.1719C41.3594 24.3984 40.2578 22.9062 39.6562 21.1094C39.0391 23.0312 37.8828 24.625 36.2656 25.4375L35.2031 24.0469C37.4688 22.9688 38.7656 20.2656 38.7812 17.6562V15.4062H40.5156V17.6562ZM46.5312 14.2656V19.7969H48.7031V21.2812H46.5312V28.3906H44.7969V14.2656H46.5312ZM62.1875 22.2656V23.6719H56.5625V28.375H54.8438V23.6719H49.2812V22.2656H62.1875ZM60.6094 14.9844V20.6094H50.8594V14.9844H60.6094ZM52.5625 16.375V19.25H58.875V16.375H52.5625ZM74.8594 14.2656V21.4688H73.1406V14.2656H74.8594ZM74.8906 22.125V25.7969H67.25V26.8906H75.3125V28.2656H65.5469V24.5H73.1562V23.4688H65.5156V22.125H74.8906ZM68.3906 15.7031C68.3906 17.5 69.5781 19.1875 71.8125 19.8594L70.9688 21.2031C69.3281 20.7031 68.1562 19.6484 67.5156 18.2969C66.875 19.7656 65.6719 20.9141 63.9844 21.4531L63.1094 20.0938C65.3906 19.3594 66.5938 17.5469 66.5938 15.7031V14.6094H68.3906V15.7031ZM88.7031 14.2656V28.4062H86.9531V14.2656H88.7031ZM81.0938 15.2969C83.2188 15.2969 84.7656 17.2344 84.7812 20.2812C84.7656 23.3594 83.2188 25.2812 81.0938 25.2812C78.9531 25.2812 77.4062 23.3594 77.4062 20.2812C77.4062 17.2344 78.9531 15.2969 81.0938 15.2969ZM81.0938 16.8594C79.8906 16.8594 79.0781 18.125 79.0781 20.2812C79.0781 22.4531 79.8906 23.7188 81.0938 23.7188C82.2812 23.7188 83.0938 22.4531 83.0938 20.2812C83.0938 18.125 82.2812 16.8594 81.0938 16.8594ZM95.8281 17.6562C95.8125 20.1719 97.0781 22.7344 99.2656 23.7812L98.2031 25.1719C96.6719 24.3984 95.5703 22.9062 94.9688 21.1094C94.3516 23.0312 93.1953 24.625 91.5781 25.4375L90.5156 24.0469C92.7812 22.9688 94.0781 20.2656 94.0938 17.6562V15.4062H95.8281V17.6562ZM101.844 14.2656V19.7969H104.016V21.2812H101.844V28.3906H100.109V14.2656H101.844Z" fill="#1B92FF"/>
</g>
</svg>
