<svg width="108" height="40" viewBox="0 0 108 40" fill="none" xmlns="http://www.w3.org/2000/svg">
<g filter="url(#filter0_d_205_37263)">
<rect x="4" y="4" width="92" height="34" rx="4" fill="#E9F4FF" shape-rendering="crispEdges"/>
<path fill-rule="evenodd" clip-rule="evenodd" d="M16.8315 30.1242L11.8315 26.8984C10.9356 26.3204 10.4876 26.0313 10.2438 25.5839C10 25.1365 10 24.6034 10 23.5372V18.6059C10 17.9408 10 17.4832 10.0592 17.1244L18 22.8879V30.842C17.6828 30.6734 17.312 30.4342 16.8315 30.1242ZM20 30.842C20.3172 30.6734 20.688 30.4342 21.1685 30.1242L21.1685 30.1242L26.1685 26.8984C27.0644 26.3204 27.5124 26.0313 27.7562 25.5839C28 25.1365 28 24.6034 28 23.5372V18.6059C28 17.9408 28 17.4832 27.9408 17.1244L20 22.8879V30.842ZM26.6733 15.5731L19 21.1424L11.3267 15.5731C11.4769 15.4735 11.6444 15.3654 11.8315 15.2448L16.8315 12.0189C17.8844 11.3396 18.4108 11 19 11C19.5892 11 20.1156 11.3396 21.1685 12.0189L26.1685 15.2448C26.3556 15.3654 26.5231 15.4735 26.6733 15.5731Z" fill="#1B92FF"/>
<path d="M48.375 25.2344V26.6406H35.4688V25.2344H41V21.9688H42.7188V25.2344H48.375ZM42.7656 16.1562C42.7656 18.2969 44.9062 20.4062 47.875 20.875L47.125 22.3125C44.7344 21.8594 42.7812 20.4922 41.8438 18.6406C40.9062 20.4844 38.9688 21.875 36.5938 22.3125L35.8438 20.875C38.7969 20.4062 40.9062 18.2812 40.9219 16.1562V15.125H42.7656V16.1562ZM57.2188 15.6719V17.0469H49.3281V15.6719H52.4844V14.1406H54.2188V15.6719H57.2188ZM53.3281 17.6094C55.25 17.6094 56.625 18.6719 56.6406 20.25C56.625 21.8125 55.25 22.8594 53.3281 22.8594C51.4062 22.8594 50.0469 21.8125 50.0625 20.25C50.0469 18.6719 51.4062 17.6094 53.3281 17.6094ZM53.3281 18.9062C52.3281 18.9062 51.6719 19.4062 51.6875 20.25C51.6719 21.0781 52.3281 21.5625 53.3281 21.5625C54.3281 21.5625 55.0156 21.0781 55.0156 20.25C55.0156 19.4062 54.3281 18.9062 53.3281 18.9062ZM61.125 14.2656V23.3125H59.3906V21.6562H57.2969V20.2656H59.3906V18.875H57.3125V17.4688H59.3906V14.2656H61.125ZM56.375 23.4688C59.3594 23.4688 61.2031 24.375 61.2031 25.9219C61.2031 27.4531 59.3594 28.375 56.375 28.375C53.3906 28.375 51.5469 27.4531 51.5469 25.9219C51.5469 24.375 53.3906 23.4688 56.375 23.4688ZM56.375 24.7969C54.4688 24.7969 53.375 25.1719 53.375 25.9219C53.375 26.6562 54.4688 27.0469 56.375 27.0469C58.2656 27.0469 59.3438 26.6562 59.3438 25.9219C59.3438 25.1719 58.2656 24.7969 56.375 24.7969ZM74.875 14.2656V28.4062H73.125V14.2656H74.875ZM67.2656 15.2969C69.3906 15.2969 70.9375 17.2344 70.9531 20.2812C70.9375 23.3594 69.3906 25.2812 67.2656 25.2812C65.125 25.2812 63.5781 23.3594 63.5781 20.2812C63.5781 17.2344 65.125 15.2969 67.2656 15.2969ZM67.2656 16.8594C66.0625 16.8594 65.25 18.125 65.25 20.2812C65.25 22.4531 66.0625 23.7188 67.2656 23.7188C68.4531 23.7188 69.2656 22.4531 69.2656 20.2812C69.2656 18.125 68.4531 16.8594 67.2656 16.8594ZM82 17.6562C81.9844 20.1719 83.25 22.7344 85.4375 23.7812L84.375 25.1719C82.8438 24.3984 81.7422 22.9062 81.1406 21.1094C80.5234 23.0312 79.3672 24.625 77.75 25.4375L76.6875 24.0469C78.9531 22.9688 80.25 20.2656 80.2656 17.6562V15.4062H82V17.6562ZM88.0156 14.2656V19.7969H90.1875V21.2812H88.0156V28.3906H86.2812V14.2656H88.0156Z" fill="#1B92FF"/>
</g>
</svg>
