<svg width="143" height="40" viewBox="0 0 143 40" fill="none" xmlns="http://www.w3.org/2000/svg">
<g filter="url(#filter0_d_205_37272)">
<rect x="4" y="4" width="127" height="34" rx="4" fill="#FFEEF0" shape-rendering="crispEdges"/>
<path fill-rule="evenodd" clip-rule="evenodd" d="M19.167 11V16L19.167 16.0544V16.0544V16.0544V16.0545C19.1669 16.4785 19.1668 16.8906 19.2125 17.2305C19.264 17.6137 19.3896 18.051 19.7528 18.4142C20.116 18.7774 20.5533 18.903 20.9365 18.9545C21.2764 19.0002 21.6885 19.0001 22.1125 19H22.1126H22.1126H22.1126L22.167 19H27V25C27 27.8284 27 29.2426 26.1213 30.1213C25.2426 31 23.8284 31 21 31H17C14.1716 31 12.7574 31 11.8787 30.1213C11 29.2426 11 27.8284 11 25V17C11 14.1716 11 12.7574 11.8787 11.8787C12.7574 11 14.1716 11 17 11H19.167ZM21.167 11.0105V16C21.167 16.4997 21.1691 16.7738 21.1947 16.964L21.1957 16.9713L21.203 16.9723C21.3932 16.9979 21.6673 17 22.167 17H26.9954C26.9852 16.5884 26.9525 16.316 26.8478 16.0631C26.6955 15.6955 26.4065 15.4065 25.8284 14.8284L23.1716 12.1716C22.5935 11.5935 22.3045 11.3045 21.9369 11.1522C21.7199 11.0623 21.4885 11.0255 21.167 11.0105ZM14.5 22C14.5 21.4477 14.9477 21 15.5 21L22.5 21C23.0523 21 23.5 21.4477 23.5 22C23.5 22.5523 23.0523 23 22.5 23L15.5 23C14.9477 23 14.5 22.5523 14.5 22ZM15.5 25C14.9477 25 14.5 25.4477 14.5 26C14.5 26.5523 14.9477 27 15.5 27H20.1667C20.719 27 21.1667 26.5523 21.1667 26C21.1667 25.4477 20.719 25 20.1667 25H15.5Z" fill="#FF4F64"/>
<path d="M40.7969 18.2812C40.7969 20.5938 42.1562 23.0312 44.4375 23.9844L43.4844 25.3594C41.8125 24.6406 40.5938 23.1562 39.9531 21.3594C39.2969 23.2969 38.0625 24.9219 36.4062 25.7031L35.4062 24.3438C37.6406 23.3125 39.0312 20.6875 39.0312 18.2812V17.0938H35.9219V15.6562H43.8906V17.0938H40.7969V18.2812ZM47.2188 14.2656V28.3906H45.4688V14.2656H47.2188ZM61.125 14.2656V22.6562H59.3906V19.2031H56.9844V17.7812H59.3906V14.2656H61.125ZM56.3438 23.0156C59.3438 23.0156 61.1719 24 61.1719 25.7031C61.1719 27.4062 59.3438 28.3906 56.3438 28.3906C53.3594 28.3906 51.5312 27.4062 51.5469 25.7031C51.5312 24 53.3594 23.0156 56.3438 23.0156ZM56.3438 24.3438C54.375 24.3438 53.2656 24.8125 53.2656 25.7031C53.2656 26.5781 54.375 27.0469 56.3438 27.0469C58.3125 27.0469 59.4375 26.5781 59.4375 25.7031C59.4375 24.8125 58.3125 24.3438 56.3438 24.3438ZM54.4844 16.6875C54.4844 18.4062 55.625 20.1406 57.8125 20.875L56.9375 22.25C55.3672 21.7188 54.25 20.6406 53.6406 19.3125C53.0156 20.8203 51.8359 22.0234 50.1562 22.625L49.25 21.25C51.5156 20.4688 52.7188 18.5625 52.7188 16.7031V16.5938H49.7812V15.1875H57.4062V16.5938H54.4844V16.6875ZM78.75 14.2812V24.7188H77.0156V21.6406H73.6094V20.2188H77.0156V18.4688H73.7969C72.7969 20.6406 70.7188 22.2656 67.8594 23.1406L67.125 21.7812C70.2422 20.7812 72.2422 18.9844 72.5625 16.75H67.8594V15.3594H74.4688C74.4688 15.9531 74.3984 16.5234 74.2812 17.0625H77.0156V14.2812H78.75ZM79.1094 26.7031V28.1094H69.5469V23.6875H71.3125V26.7031H79.1094ZM85.9375 16.6875C85.9375 18.4062 87.0781 20.1406 89.2656 20.875L88.3906 22.2188C86.8125 21.7031 85.6953 20.6328 85.0781 19.3125C84.4609 20.7891 83.2812 21.9766 81.6094 22.5312L80.7188 21.1562C82.9688 20.4219 84.1719 18.5469 84.1719 16.7031V16.5156H81.2344V15.125H88.8594V16.5156H85.9375V16.6875ZM92.5781 23.3594V28.3906H90.8438V24.75H82.9531V23.3594H92.5781ZM92.5781 14.2656V22.6875H90.8438V19.1875H88.4375V17.7656H90.8438V14.2656H92.5781ZM111.281 25.25V26.6719H98.375V25.25H101.359V21.6719C100.234 21.0312 99.5547 20.0234 99.5625 18.7656C99.5469 16.5156 101.766 15.0312 104.797 15.0312C107.844 15.0312 110.062 16.5156 110.062 18.7656C110.062 20 109.406 20.9922 108.312 21.6406V25.25H111.281ZM104.797 16.4062C102.688 16.4062 101.25 17.2969 101.266 18.7656C101.25 20.2188 102.688 21.125 104.797 21.125C106.906 21.125 108.359 20.2188 108.359 18.7656C108.359 17.2969 106.906 16.4062 104.797 16.4062ZM103.078 25.25H106.547V22.2969C106.008 22.4219 105.422 22.4844 104.797 22.4844C104.188 22.4844 103.609 22.4219 103.078 22.3125V25.25ZM117.281 17.2812C117.281 18.8281 118.484 20.3594 120.703 20.9531L119.891 22.2969C118.258 21.8516 117.086 20.8984 116.438 19.6719C115.828 21.0625 114.648 22.1562 112.969 22.6562L112.156 21.3125C114.359 20.6406 115.547 18.9844 115.547 17.2812V17.2031H112.594V15.8281H115.547V14.2031H117.297V15.8281H120.234V17.2031H117.281V17.2812ZM124.031 14.2656V22.8125H122.297V19.5469H119.812V18.1406H122.297V14.2656H124.031ZM119.25 23.0938C122.234 23.0938 124.078 24.0469 124.078 25.7188C124.078 27.4062 122.234 28.375 119.25 28.375C116.281 28.375 114.438 27.4062 114.453 25.7188C114.438 24.0469 116.281 23.0938 119.25 23.0938ZM119.25 24.4219C117.281 24.4375 116.172 24.875 116.172 25.7188C116.172 26.5625 117.281 27.0312 119.25 27.0312C121.25 27.0312 122.344 26.5625 122.344 25.7188C122.344 24.875 121.25 24.4375 119.25 24.4219Z" fill="#FF4F64"/>
</g>
</svg>
