<svg width="88" height="40" viewBox="0 0 88 40" fill="none" xmlns="http://www.w3.org/2000/svg">
<g filter="url(#filter0_d_205_38576)">
<rect x="4" y="4" width="72" height="34" rx="4" fill="#F2F3F8" shape-rendering="crispEdges"/>
<path d="M21.6562 14.2812V18.3906H23.5625V19.8281H21.6562V23.8281H19.9219V14.2812H21.6562ZM10.3438 22.1406C11.4062 22.1406 12.6328 22.1328 13.9062 22.0938V21.2344C12.3359 21.0391 11.3438 20.2812 11.3438 19.1719C11.3438 17.875 12.7031 17.0625 14.75 17.0781C16.8125 17.0625 18.1562 17.875 18.1562 19.1719C18.1562 20.2734 17.1875 21.0234 15.6406 21.2188V22.0312C16.8438 21.9766 18.0547 21.8828 19.1875 21.7344L19.3281 22.9375C16.3125 23.4688 13.0156 23.5 10.5312 23.5L10.3438 22.1406ZM21.6562 24.4375V28.3906H19.9219V25.7969H12.125V24.4375H21.6562ZM18.8125 15.3906V16.6719H10.7031V15.3906H13.9062V14.1562H15.6406V15.3906H18.8125ZM14.75 18.25C13.6562 18.2344 13 18.5625 13.0156 19.1719C13 19.75 13.6562 20.125 14.75 20.1094C15.8438 20.125 16.5 19.75 16.5 19.1719C16.5 18.5625 15.8438 18.2344 14.75 18.25ZM36.125 14.2656V22.6562H34.3906V19.2031H31.9844V17.7812H34.3906V14.2656H36.125ZM31.3438 23.0156C34.3438 23.0156 36.1719 24 36.1719 25.7031C36.1719 27.4062 34.3438 28.3906 31.3438 28.3906C28.3594 28.3906 26.5312 27.4062 26.5469 25.7031C26.5312 24 28.3594 23.0156 31.3438 23.0156ZM31.3438 24.3438C29.375 24.3438 28.2656 24.8125 28.2656 25.7031C28.2656 26.5781 29.375 27.0469 31.3438 27.0469C33.3125 27.0469 34.4375 26.5781 34.4375 25.7031C34.4375 24.8125 33.3125 24.3438 31.3438 24.3438ZM29.4844 16.6875C29.4844 18.4062 30.625 20.1406 32.8125 20.875L31.9375 22.25C30.3672 21.7188 29.25 20.6406 28.6406 19.3125C28.0156 20.8203 26.8359 22.0234 25.1562 22.625L24.25 21.25C26.5156 20.4688 27.7188 18.5625 27.7188 16.7031V16.5938H24.7812V15.1875H32.4062V16.5938H29.4844V16.6875ZM53.75 14.2812V24.7188H52.0156V21.6406H48.6094V20.2188H52.0156V18.4688H48.7969C47.7969 20.6406 45.7188 22.2656 42.8594 23.1406L42.125 21.7812C45.2422 20.7812 47.2422 18.9844 47.5625 16.75H42.8594V15.3594H49.4688C49.4688 15.9531 49.3984 16.5234 49.2812 17.0625H52.0156V14.2812H53.75ZM54.1094 26.7031V28.1094H44.5469V23.6875H46.3125V26.7031H54.1094ZM60.9375 16.6875C60.9375 18.4062 62.0781 20.1406 64.2656 20.875L63.3906 22.2188C61.8125 21.7031 60.6953 20.6328 60.0781 19.3125C59.4609 20.7891 58.2812 21.9766 56.6094 22.5312L55.7188 21.1562C57.9688 20.4219 59.1719 18.5469 59.1719 16.7031V16.5156H56.2344V15.125H63.8594V16.5156H60.9375V16.6875ZM67.5781 23.3594V28.3906H65.8438V24.75H57.9531V23.3594H67.5781ZM67.5781 14.2656V22.6875H65.8438V19.1875H63.4375V17.7656H65.8438V14.2656H67.5781Z" fill="#242945"/>
</g>
</svg>
